<svg width="32" height="23" viewBox="0 0 32 23" fill="none" xmlns="http://www.w3.org/2000/svg">
<path d="M7.13809 8.56525C10.9594 8.56525 14.0572 11.6631 14.0572 15.4843C14.0572 19.3056 10.9594 22.4034 7.13809 22.4034C3.31677 22.4034 0.218999 19.3056 0.218999 15.4843L0.18811 14.4959C0.18811 6.85327 6.38366 0.657715 14.0263 0.657715V4.61148C11.3861 4.61148 8.90388 5.63965 7.03696 7.50656C6.6776 7.86599 6.34962 8.24839 6.05377 8.65007C6.40707 8.59447 6.76915 8.56525 7.13809 8.56525ZM24.93 8.56525C28.7513 8.56525 31.8491 11.6631 31.8491 15.4843C31.8491 19.3056 28.7513 22.4034 24.93 22.4034C21.1088 22.4034 18.0109 19.3056 18.0109 15.4843L17.9801 14.4959C17.9801 6.85327 24.1755 0.657715 31.8182 0.657715V4.61148C29.1781 4.61148 26.6958 5.63965 24.8289 7.50656C24.4695 7.86599 24.1415 8.24839 23.8457 8.65007C24.199 8.59447 24.561 8.56525 24.93 8.56525Z" fill="#5D6AFB"/>
</svg>
